<svg width="772" height="772" viewBox="0 0 772 772" fill="none" xmlns="http://www.w3.org/2000/svg">
<path fill-rule="evenodd" clip-rule="evenodd" d="M326.184 373.394C323.459 342.9 310.427 313.154 287.085 289.813C234.234 236.962 148.546 236.962 95.6952 289.813C42.8443 342.664 42.8443 428.352 95.6952 481.203C119.036 504.544 148.782 517.577 179.276 520.301L326.184 373.394ZM290.934 477.196L283.078 485.052C284.434 483.802 285.77 482.519 287.085 481.203C288.401 479.887 289.684 478.551 290.934 477.196Z" fill="#4F6EA5"/>
<path fill-rule="evenodd" clip-rule="evenodd" d="M520.301 179.276C517.577 148.782 504.544 119.036 481.203 95.6953C428.352 42.8444 342.663 42.8443 289.813 95.6953C236.962 148.546 236.962 234.235 289.813 287.085C313.154 310.427 342.9 323.459 373.393 326.184L520.301 179.276ZM485.05 283.08L477.197 290.933C478.552 289.683 479.888 288.401 481.203 287.085C482.518 285.77 483.8 284.435 485.05 283.08Z" fill="#F8ADBE"/>
<circle cx="385.508" cy="579.626" r="135.333" transform="rotate(-45 385.508 579.626)" fill="#F0D67F"/>
<circle cx="579.626" cy="385.508" r="135.333" transform="rotate(-45 579.626 385.508)" fill="#DA5A53"/>
</svg>
